<svg xmlns="http://www.w3.org/2000/svg" width="2172" height="724" viewBox="0 0 2172 724"><rect x="0" y="440" width="2172" height="220" fill="#737a7c" /><rect x="0" y="340" width="72" height="280" fill="#737a7c" /><rect x="2100" y="340" width="72" height="280" fill="#737a7c" /><rect x="72" y="418" width="86" height="191" fill="#737a7c" /><rect x="110" y="400" width="8" height="18" fill="#737a7c" /><rect x="89" y="480" width="8" height="12" fill="#d2d5d2" fill-opacity="0.32"/><rect x="89" y="518" width="8" height="12" fill="#d2d5d2" fill-opacity="0.32"/><rect x="115" y="442" width="8" height="12" fill="#d2d5d2" fill-opacity="0.32"/><rect x="115" y="480" width="8" height="12" fill="#d2d5d2" fill-opacity="0.32"/><rect x="115" y="518" width="8" height="12" fill="#d2d5d2" fill-opacity="0.32"/><rect x="141" y="442" width="8" height="12" fill="#d2d5d2" fill-opacity="0.32"/><rect x="141" y="518" width="8" height="12" fill="#d2d5d2" fill-opacity="0.32"/><rect x="141" y="556" width="8" height="12" fill="#d2d5d2" fill-opacity="0.32"/><rect x="158" y="338" width="135" height="271" fill="#737a7c" /><rect x="175" y="362" width="8" height="12" fill="#d2d5d2" fill-opacity="0.32"/><rect x="175" y="400" width="8" height="12" fill="#d2d5d2" fill-opacity="0.32"/><rect x="175" y="438" width="8" height="12" fill="#d2d5d2" fill-opacity="0.32"/><rect x="175" y="514" width="8" height="12" fill="#d2d5d2" fill-opacity="0.32"/><rect x="201" y="362" width="8" height="12" fill="#d2d5d2" fill-opacity="0.32"/><rect x="201" y="400" width="8" height="12" fill="#d2d5d2" fill-opacity="0.32"/><rect x="201" y="438" width="8" height="12" fill="#d2d5d2" fill-opacity="0.32"/><rect x="201" y="476" width="8" height="12" fill="#d2d5d2" fill-opacity="0.32"/><rect x="201" y="514" width="8" height="12" fill="#d2d5d2" fill-opacity="0.32"/><rect x="201" y="552" width="8" height="12" fill="#d2d5d2" fill-opacity="0.32"/><rect x="227" y="400" width="8" height="12" fill="#d2d5d2" fill-opacity="0.32"/><rect x="227" y="514" width="8" height="12" fill="#d2d5d2" fill-opacity="0.32"/><rect x="227" y="552" width="8" height="12" fill="#d2d5d2" fill-opacity="0.32"/><rect x="253" y="400" width="8" height="12" fill="#d2d5d2" fill-opacity="0.32"/><rect x="253" y="438" width="8" height="12" fill="#d2d5d2" fill-opacity="0.32"/><rect x="253" y="476" width="8" height="12" fill="#d2d5d2" fill-opacity="0.32"/><rect x="253" y="552" width="8" height="12" fill="#d2d5d2" fill-opacity="0.32"/><rect x="279" y="362" width="8" height="12" fill="#d2d5d2" fill-opacity="0.32"/><rect x="279" y="400" width="8" height="12" fill="#d2d5d2" fill-opacity="0.32"/><rect x="279" y="438" width="8" height="12" fill="#d2d5d2" fill-opacity="0.32"/><rect x="279" y="476" width="8" height="12" fill="#d2d5d2" fill-opacity="0.32"/><rect x="279" y="514" width="8" height="12" fill="#d2d5d2" fill-opacity="0.32"/><rect x="279" y="552" width="8" height="12" fill="#d2d5d2" fill-opacity="0.32"/><rect x="293" y="362" width="132" height="247" fill="#737a7c" /><rect x="352" y="344" width="8" height="18" fill="#737a7c" /><rect x="310" y="386" width="8" height="12" fill="#d2d5d2" fill-opacity="0.32"/><rect x="310" y="424" width="8" height="12" fill="#d2d5d2" fill-opacity="0.32"/><rect x="310" y="462" width="8" height="12" fill="#d2d5d2" fill-opacity="0.32"/><rect x="336" y="386" width="8" height="12" fill="#d2d5d2" fill-opacity="0.32"/><rect x="336" y="424" width="8" height="12" fill="#d2d5d2" fill-opacity="0.32"/><rect x="336" y="462" width="8" height="12" fill="#d2d5d2" fill-opacity="0.32"/><rect x="336" y="538" width="8" height="12" fill="#d2d5d2" fill-opacity="0.32"/><rect x="362" y="386" width="8" height="12" fill="#d2d5d2" fill-opacity="0.32"/><rect x="362" y="424" width="8" height="12" fill="#d2d5d2" fill-opacity="0.32"/><rect x="362" y="462" width="8" height="12" fill="#d2d5d2" fill-opacity="0.32"/><rect x="362" y="538" width="8" height="12" fill="#d2d5d2" fill-opacity="0.32"/><rect x="388" y="386" width="8" height="12" fill="#d2d5d2" fill-opacity="0.32"/><rect x="388" y="424" width="8" height="12" fill="#d2d5d2" fill-opacity="0.32"/><rect x="388" y="500" width="8" height="12" fill="#d2d5d2" fill-opacity="0.32"/><rect x="388" y="538" width="8" height="12" fill="#d2d5d2" fill-opacity="0.32"/><rect x="414" y="386" width="8" height="12" fill="#d2d5d2" fill-opacity="0.32"/><rect x="414" y="424" width="8" height="12" fill="#d2d5d2" fill-opacity="0.32"/><rect x="414" y="462" width="8" height="12" fill="#d2d5d2" fill-opacity="0.32"/><rect x="414" y="500" width="8" height="12" fill="#d2d5d2" fill-opacity="0.32"/><rect x="414" y="538" width="8" height="12" fill="#d2d5d2" fill-opacity="0.32"/><rect x="425" y="330" width="52" height="279" fill="#737a7c" /><rect x="477" y="323" width="98" height="286" fill="#737a7c" /><rect x="494" y="347" width="8" height="12" fill="#d2d5d2" fill-opacity="0.32"/><rect x="494" y="385" width="8" height="12" fill="#d2d5d2" fill-opacity="0.32"/><rect x="494" y="423" width="8" height="12" fill="#d2d5d2" fill-opacity="0.32"/><rect x="494" y="499" width="8" height="12" fill="#d2d5d2" fill-opacity="0.32"/><rect x="494" y="537" width="8" height="12" fill="#d2d5d2" fill-opacity="0.32"/><rect x="520" y="347" width="8" height="12" fill="#d2d5d2" fill-opacity="0.32"/><rect x="520" y="423" width="8" height="12" fill="#d2d5d2" fill-opacity="0.32"/><rect x="520" y="499" width="8" height="12" fill="#d2d5d2" fill-opacity="0.32"/><rect x="520" y="537" width="8" height="12" fill="#d2d5d2" fill-opacity="0.32"/><rect x="546" y="347" width="8" height="12" fill="#d2d5d2" fill-opacity="0.32"/><rect x="546" y="385" width="8" height="12" fill="#d2d5d2" fill-opacity="0.32"/><rect x="546" y="423" width="8" height="12" fill="#d2d5d2" fill-opacity="0.32"/><rect x="546" y="461" width="8" height="12" fill="#d2d5d2" fill-opacity="0.32"/><rect x="546" y="537" width="8" height="12" fill="#d2d5d2" fill-opacity="0.32"/><rect x="575" y="357" width="120" height="252" fill="#737a7c" /><rect x="592" y="381" width="8" height="12" fill="#d2d5d2" fill-opacity="0.32"/><rect x="592" y="419" width="8" height="12" fill="#d2d5d2" fill-opacity="0.32"/><rect x="592" y="457" width="8" height="12" fill="#d2d5d2" fill-opacity="0.32"/><rect x="592" y="495" width="8" height="12" fill="#d2d5d2" fill-opacity="0.32"/><rect x="592" y="533" width="8" height="12" fill="#d2d5d2" fill-opacity="0.32"/><rect x="618" y="381" width="8" height="12" fill="#d2d5d2" fill-opacity="0.32"/><rect x="618" y="419" width="8" height="12" fill="#d2d5d2" fill-opacity="0.32"/><rect x="618" y="495" width="8" height="12" fill="#d2d5d2" fill-opacity="0.32"/><rect x="618" y="533" width="8" height="12" fill="#d2d5d2" fill-opacity="0.32"/><rect x="644" y="381" width="8" height="12" fill="#d2d5d2" fill-opacity="0.32"/><rect x="644" y="419" width="8" height="12" fill="#d2d5d2" fill-opacity="0.32"/><rect x="644" y="457" width="8" height="12" fill="#d2d5d2" fill-opacity="0.32"/><rect x="644" y="495" width="8" height="12" fill="#d2d5d2" fill-opacity="0.32"/><rect x="644" y="533" width="8" height="12" fill="#d2d5d2" fill-opacity="0.32"/><rect x="670" y="419" width="8" height="12" fill="#d2d5d2" fill-opacity="0.32"/><rect x="670" y="457" width="8" height="12" fill="#d2d5d2" fill-opacity="0.32"/><rect x="670" y="495" width="8" height="12" fill="#d2d5d2" fill-opacity="0.32"/><rect x="695" y="310" width="131" height="299" fill="#737a7c" /><rect x="753" y="292" width="8" height="18" fill="#737a7c" /><rect x="712" y="334" width="8" height="12" fill="#d2d5d2" fill-opacity="0.32"/><rect x="712" y="410" width="8" height="12" fill="#d2d5d2" fill-opacity="0.32"/><rect x="712" y="448" width="8" height="12" fill="#d2d5d2" fill-opacity="0.32"/><rect x="712" y="486" width="8" height="12" fill="#d2d5d2" fill-opacity="0.32"/><rect x="712" y="524" width="8" height="12" fill="#d2d5d2" fill-opacity="0.32"/><rect x="712" y="562" width="8" height="12" fill="#d2d5d2" fill-opacity="0.32"/><rect x="738" y="334" width="8" height="12" fill="#d2d5d2" fill-opacity="0.32"/><rect x="738" y="372" width="8" height="12" fill="#d2d5d2" fill-opacity="0.32"/><rect x="738" y="410" width="8" height="12" fill="#d2d5d2" fill-opacity="0.32"/><rect x="738" y="448" width="8" height="12" fill="#d2d5d2" fill-opacity="0.32"/><rect x="738" y="486" width="8" height="12" fill="#d2d5d2" fill-opacity="0.32"/><rect x="738" y="524" width="8" height="12" fill="#d2d5d2" fill-opacity="0.32"/><rect x="738" y="562" width="8" height="12" fill="#d2d5d2" fill-opacity="0.32"/><rect x="764" y="334" width="8" height="12" fill="#d2d5d2" fill-opacity="0.32"/><rect x="764" y="410" width="8" height="12" fill="#d2d5d2" fill-opacity="0.32"/><rect x="764" y="448" width="8" height="12" fill="#d2d5d2" fill-opacity="0.32"/><rect x="764" y="486" width="8" height="12" fill="#d2d5d2" fill-opacity="0.32"/><rect x="764" y="524" width="8" height="12" fill="#d2d5d2" fill-opacity="0.32"/><rect x="790" y="334" width="8" height="12" fill="#d2d5d2" fill-opacity="0.32"/><rect x="790" y="372" width="8" height="12" fill="#d2d5d2" fill-opacity="0.32"/><rect x="790" y="410" width="8" height="12" fill="#d2d5d2" fill-opacity="0.32"/><rect x="790" y="448" width="8" height="12" fill="#d2d5d2" fill-opacity="0.32"/><rect x="790" y="486" width="8" height="12" fill="#d2d5d2" fill-opacity="0.32"/><rect x="790" y="562" width="8" height="12" fill="#d2d5d2" fill-opacity="0.32"/><rect x="826" y="426" width="108" height="183" fill="#737a7c" /><rect x="874" y="408" width="8" height="18" fill="#737a7c" /><rect x="843" y="450" width="8" height="12" fill="#d2d5d2" fill-opacity="0.32"/><rect x="843" y="488" width="8" height="12" fill="#d2d5d2" fill-opacity="0.32"/><rect x="843" y="526" width="8" height="12" fill="#d2d5d2" fill-opacity="0.32"/><rect x="869" y="450" width="8" height="12" fill="#d2d5d2" fill-opacity="0.32"/><rect x="869" y="488" width="8" height="12" fill="#d2d5d2" fill-opacity="0.32"/><rect x="869" y="526" width="8" height="12" fill="#d2d5d2" fill-opacity="0.32"/><rect x="869" y="564" width="8" height="12" fill="#d2d5d2" fill-opacity="0.32"/><rect x="895" y="488" width="8" height="12" fill="#d2d5d2" fill-opacity="0.32"/><rect x="895" y="526" width="8" height="12" fill="#d2d5d2" fill-opacity="0.32"/><rect x="921" y="450" width="8" height="12" fill="#d2d5d2" fill-opacity="0.32"/><rect x="921" y="488" width="8" height="12" fill="#d2d5d2" fill-opacity="0.32"/><rect x="921" y="526" width="8" height="12" fill="#d2d5d2" fill-opacity="0.32"/><rect x="921" y="564" width="8" height="12" fill="#d2d5d2" fill-opacity="0.32"/><rect x="934" y="346" width="54" height="263" fill="#737a7c" /><rect x="958" y="328" width="8" height="18" fill="#737a7c" /><rect x="988" y="337" width="127" height="272" fill="#737a7c" /><rect x="1005" y="361" width="8" height="12" fill="#d2d5d2" fill-opacity="0.32"/><rect x="1005" y="399" width="8" height="12" fill="#d2d5d2" fill-opacity="0.32"/><rect x="1005" y="513" width="8" height="12" fill="#d2d5d2" fill-opacity="0.32"/><rect x="1005" y="551" width="8" height="12" fill="#d2d5d2" fill-opacity="0.32"/><rect x="1031" y="361" width="8" height="12" fill="#d2d5d2" fill-opacity="0.32"/><rect x="1031" y="399" width="8" height="12" fill="#d2d5d2" fill-opacity="0.32"/><rect x="1031" y="437" width="8" height="12" fill="#d2d5d2" fill-opacity="0.32"/><rect x="1031" y="475" width="8" height="12" fill="#d2d5d2" fill-opacity="0.32"/><rect x="1031" y="513" width="8" height="12" fill="#d2d5d2" fill-opacity="0.32"/><rect x="1057" y="361" width="8" height="12" fill="#d2d5d2" fill-opacity="0.32"/><rect x="1057" y="399" width="8" height="12" fill="#d2d5d2" fill-opacity="0.32"/><rect x="1057" y="437" width="8" height="12" fill="#d2d5d2" fill-opacity="0.32"/><rect x="1057" y="475" width="8" height="12" fill="#d2d5d2" fill-opacity="0.32"/><rect x="1057" y="513" width="8" height="12" fill="#d2d5d2" fill-opacity="0.32"/><rect x="1083" y="361" width="8" height="12" fill="#d2d5d2" fill-opacity="0.32"/><rect x="1083" y="399" width="8" height="12" fill="#d2d5d2" fill-opacity="0.32"/><rect x="1083" y="437" width="8" height="12" fill="#d2d5d2" fill-opacity="0.32"/><rect x="1083" y="475" width="8" height="12" fill="#d2d5d2" fill-opacity="0.32"/><rect x="1083" y="513" width="8" height="12" fill="#d2d5d2" fill-opacity="0.32"/><rect x="1083" y="551" width="8" height="12" fill="#d2d5d2" fill-opacity="0.32"/><rect x="1115" y="372" width="93" height="237" fill="#737a7c" /><rect x="1156" y="354" width="8" height="18" fill="#737a7c" /><rect x="1132" y="396" width="8" height="12" fill="#d2d5d2" fill-opacity="0.32"/><rect x="1132" y="472" width="8" height="12" fill="#d2d5d2" fill-opacity="0.32"/><rect x="1132" y="510" width="8" height="12" fill="#d2d5d2" fill-opacity="0.32"/><rect x="1158" y="434" width="8" height="12" fill="#d2d5d2" fill-opacity="0.32"/><rect x="1158" y="510" width="8" height="12" fill="#d2d5d2" fill-opacity="0.32"/><rect x="1158" y="548" width="8" height="12" fill="#d2d5d2" fill-opacity="0.32"/><rect x="1184" y="396" width="8" height="12" fill="#d2d5d2" fill-opacity="0.32"/><rect x="1184" y="434" width="8" height="12" fill="#d2d5d2" fill-opacity="0.32"/><rect x="1184" y="472" width="8" height="12" fill="#d2d5d2" fill-opacity="0.32"/><rect x="1184" y="510" width="8" height="12" fill="#d2d5d2" fill-opacity="0.32"/><rect x="1208" y="369" width="121" height="240" fill="#737a7c" /><rect x="1225" y="393" width="8" height="12" fill="#d2d5d2" fill-opacity="0.32"/><rect x="1225" y="431" width="8" height="12" fill="#d2d5d2" fill-opacity="0.32"/><rect x="1225" y="545" width="8" height="12" fill="#d2d5d2" fill-opacity="0.32"/><rect x="1251" y="393" width="8" height="12" fill="#d2d5d2" fill-opacity="0.32"/><rect x="1251" y="431" width="8" height="12" fill="#d2d5d2" fill-opacity="0.32"/><rect x="1251" y="507" width="8" height="12" fill="#d2d5d2" fill-opacity="0.32"/><rect x="1251" y="545" width="8" height="12" fill="#d2d5d2" fill-opacity="0.32"/><rect x="1277" y="393" width="8" height="12" fill="#d2d5d2" fill-opacity="0.32"/><rect x="1277" y="431" width="8" height="12" fill="#d2d5d2" fill-opacity="0.32"/><rect x="1277" y="469" width="8" height="12" fill="#d2d5d2" fill-opacity="0.32"/><rect x="1277" y="507" width="8" height="12" fill="#d2d5d2" fill-opacity="0.32"/><rect x="1277" y="545" width="8" height="12" fill="#d2d5d2" fill-opacity="0.32"/><rect x="1303" y="393" width="8" height="12" fill="#d2d5d2" fill-opacity="0.32"/><rect x="1303" y="431" width="8" height="12" fill="#d2d5d2" fill-opacity="0.32"/><rect x="1303" y="507" width="8" height="12" fill="#d2d5d2" fill-opacity="0.32"/><rect x="1303" y="545" width="8" height="12" fill="#d2d5d2" fill-opacity="0.32"/><rect x="1329" y="329" width="67" height="280" fill="#737a7c" /><rect x="1346" y="391" width="8" height="12" fill="#d2d5d2" fill-opacity="0.32"/><rect x="1346" y="429" width="8" height="12" fill="#d2d5d2" fill-opacity="0.32"/><rect x="1346" y="467" width="8" height="12" fill="#d2d5d2" fill-opacity="0.32"/><rect x="1346" y="505" width="8" height="12" fill="#d2d5d2" fill-opacity="0.32"/><rect x="1346" y="543" width="8" height="12" fill="#d2d5d2" fill-opacity="0.32"/><rect x="1372" y="391" width="8" height="12" fill="#d2d5d2" fill-opacity="0.32"/><rect x="1372" y="467" width="8" height="12" fill="#d2d5d2" fill-opacity="0.32"/><rect x="1372" y="505" width="8" height="12" fill="#d2d5d2" fill-opacity="0.32"/><rect x="1396" y="401" width="114" height="208" fill="#737a7c" /><rect x="1413" y="425" width="8" height="12" fill="#d2d5d2" fill-opacity="0.32"/><rect x="1413" y="501" width="8" height="12" fill="#d2d5d2" fill-opacity="0.32"/><rect x="1439" y="425" width="8" height="12" fill="#d2d5d2" fill-opacity="0.32"/><rect x="1439" y="501" width="8" height="12" fill="#d2d5d2" fill-opacity="0.32"/><rect x="1465" y="425" width="8" height="12" fill="#d2d5d2" fill-opacity="0.32"/><rect x="1465" y="501" width="8" height="12" fill="#d2d5d2" fill-opacity="0.32"/><rect x="1465" y="539" width="8" height="12" fill="#d2d5d2" fill-opacity="0.32"/><rect x="1491" y="425" width="8" height="12" fill="#d2d5d2" fill-opacity="0.32"/><rect x="1491" y="463" width="8" height="12" fill="#d2d5d2" fill-opacity="0.32"/><rect x="1491" y="539" width="8" height="12" fill="#d2d5d2" fill-opacity="0.32"/><rect x="1510" y="367" width="103" height="242" fill="#737a7c" /><rect x="1527" y="391" width="8" height="12" fill="#d2d5d2" fill-opacity="0.32"/><rect x="1527" y="429" width="8" height="12" fill="#d2d5d2" fill-opacity="0.32"/><rect x="1527" y="467" width="8" height="12" fill="#d2d5d2" fill-opacity="0.32"/><rect x="1527" y="505" width="8" height="12" fill="#d2d5d2" fill-opacity="0.32"/><rect x="1527" y="543" width="8" height="12" fill="#d2d5d2" fill-opacity="0.32"/><rect x="1553" y="391" width="8" height="12" fill="#d2d5d2" fill-opacity="0.32"/><rect x="1553" y="467" width="8" height="12" fill="#d2d5d2" fill-opacity="0.32"/><rect x="1553" y="543" width="8" height="12" fill="#d2d5d2" fill-opacity="0.32"/><rect x="1579" y="391" width="8" height="12" fill="#d2d5d2" fill-opacity="0.32"/><rect x="1579" y="467" width="8" height="12" fill="#d2d5d2" fill-opacity="0.32"/><rect x="1579" y="505" width="8" height="12" fill="#d2d5d2" fill-opacity="0.32"/><rect x="1579" y="543" width="8" height="12" fill="#d2d5d2" fill-opacity="0.32"/><rect x="1613" y="354" width="120" height="255" fill="#737a7c" /><rect x="1630" y="378" width="8" height="12" fill="#d2d5d2" fill-opacity="0.32"/><rect x="1630" y="416" width="8" height="12" fill="#d2d5d2" fill-opacity="0.32"/><rect x="1630" y="454" width="8" height="12" fill="#d2d5d2" fill-opacity="0.32"/><rect x="1630" y="530" width="8" height="12" fill="#d2d5d2" fill-opacity="0.32"/><rect x="1630" y="568" width="8" height="12" fill="#d2d5d2" fill-opacity="0.32"/><rect x="1656" y="378" width="8" height="12" fill="#d2d5d2" fill-opacity="0.32"/><rect x="1656" y="416" width="8" height="12" fill="#d2d5d2" fill-opacity="0.32"/><rect x="1656" y="530" width="8" height="12" fill="#d2d5d2" fill-opacity="0.32"/><rect x="1656" y="568" width="8" height="12" fill="#d2d5d2" fill-opacity="0.32"/><rect x="1682" y="416" width="8" height="12" fill="#d2d5d2" fill-opacity="0.32"/><rect x="1682" y="492" width="8" height="12" fill="#d2d5d2" fill-opacity="0.32"/><rect x="1682" y="530" width="8" height="12" fill="#d2d5d2" fill-opacity="0.32"/><rect x="1708" y="378" width="8" height="12" fill="#d2d5d2" fill-opacity="0.32"/><rect x="1708" y="416" width="8" height="12" fill="#d2d5d2" fill-opacity="0.32"/><rect x="1708" y="492" width="8" height="12" fill="#d2d5d2" fill-opacity="0.32"/><rect x="1708" y="568" width="8" height="12" fill="#d2d5d2" fill-opacity="0.32"/><rect x="1733" y="347" width="127" height="262" fill="#737a7c" /><rect x="1790" y="329" width="8" height="18" fill="#737a7c" /><rect x="1750" y="371" width="8" height="12" fill="#d2d5d2" fill-opacity="0.32"/><rect x="1750" y="447" width="8" height="12" fill="#d2d5d2" fill-opacity="0.32"/><rect x="1750" y="485" width="8" height="12" fill="#d2d5d2" fill-opacity="0.32"/><rect x="1750" y="523" width="8" height="12" fill="#d2d5d2" fill-opacity="0.32"/><rect x="1750" y="561" width="8" height="12" fill="#d2d5d2" fill-opacity="0.32"/><rect x="1776" y="371" width="8" height="12" fill="#d2d5d2" fill-opacity="0.32"/><rect x="1776" y="409" width="8" height="12" fill="#d2d5d2" fill-opacity="0.32"/><rect x="1776" y="447" width="8" height="12" fill="#d2d5d2" fill-opacity="0.32"/><rect x="1776" y="523" width="8" height="12" fill="#d2d5d2" fill-opacity="0.32"/><rect x="1776" y="561" width="8" height="12" fill="#d2d5d2" fill-opacity="0.32"/><rect x="1802" y="409" width="8" height="12" fill="#d2d5d2" fill-opacity="0.32"/><rect x="1802" y="447" width="8" height="12" fill="#d2d5d2" fill-opacity="0.32"/><rect x="1802" y="485" width="8" height="12" fill="#d2d5d2" fill-opacity="0.32"/><rect x="1802" y="523" width="8" height="12" fill="#d2d5d2" fill-opacity="0.32"/><rect x="1802" y="561" width="8" height="12" fill="#d2d5d2" fill-opacity="0.32"/><rect x="1828" y="371" width="8" height="12" fill="#d2d5d2" fill-opacity="0.32"/><rect x="1828" y="447" width="8" height="12" fill="#d2d5d2" fill-opacity="0.32"/><rect x="1828" y="485" width="8" height="12" fill="#d2d5d2" fill-opacity="0.32"/><rect x="1828" y="523" width="8" height="12" fill="#d2d5d2" fill-opacity="0.32"/><rect x="1828" y="561" width="8" height="12" fill="#d2d5d2" fill-opacity="0.32"/><rect x="1860" y="356" width="66" height="253" fill="#737a7c" /><rect x="1877" y="380" width="8" height="12" fill="#d2d5d2" fill-opacity="0.32"/><rect x="1877" y="418" width="8" height="12" fill="#d2d5d2" fill-opacity="0.32"/><rect x="1877" y="456" width="8" height="12" fill="#d2d5d2" fill-opacity="0.32"/><rect x="1877" y="494" width="8" height="12" fill="#d2d5d2" fill-opacity="0.32"/><rect x="1903" y="380" width="8" height="12" fill="#d2d5d2" fill-opacity="0.32"/><rect x="1903" y="418" width="8" height="12" fill="#d2d5d2" fill-opacity="0.32"/><rect x="1903" y="456" width="8" height="12" fill="#d2d5d2" fill-opacity="0.32"/><rect x="1903" y="494" width="8" height="12" fill="#d2d5d2" fill-opacity="0.32"/><rect x="1926" y="326" width="125" height="283" fill="#737a7c" /><rect x="1943" y="350" width="8" height="12" fill="#d2d5d2" fill-opacity="0.32"/><rect x="1943" y="426" width="8" height="12" fill="#d2d5d2" fill-opacity="0.32"/><rect x="1943" y="464" width="8" height="12" fill="#d2d5d2" fill-opacity="0.32"/><rect x="1943" y="502" width="8" height="12" fill="#d2d5d2" fill-opacity="0.32"/><rect x="1943" y="540" width="8" height="12" fill="#d2d5d2" fill-opacity="0.32"/><rect x="1969" y="426" width="8" height="12" fill="#d2d5d2" fill-opacity="0.32"/><rect x="1969" y="464" width="8" height="12" fill="#d2d5d2" fill-opacity="0.32"/><rect x="1969" y="540" width="8" height="12" fill="#d2d5d2" fill-opacity="0.32"/><rect x="1995" y="350" width="8" height="12" fill="#d2d5d2" fill-opacity="0.32"/><rect x="1995" y="388" width="8" height="12" fill="#d2d5d2" fill-opacity="0.32"/><rect x="1995" y="426" width="8" height="12" fill="#d2d5d2" fill-opacity="0.32"/><rect x="1995" y="464" width="8" height="12" fill="#d2d5d2" fill-opacity="0.32"/><rect x="1995" y="502" width="8" height="12" fill="#d2d5d2" fill-opacity="0.32"/><rect x="2021" y="350" width="8" height="12" fill="#d2d5d2" fill-opacity="0.32"/><rect x="2021" y="388" width="8" height="12" fill="#d2d5d2" fill-opacity="0.32"/><rect x="2021" y="464" width="8" height="12" fill="#d2d5d2" fill-opacity="0.32"/><rect x="2021" y="502" width="8" height="12" fill="#d2d5d2" fill-opacity="0.32"/><rect x="2051" y="412" width="49" height="197" fill="#737a7c" /><rect x="2073" y="394" width="8" height="18" fill="#737a7c" /></svg>